# xmcd
#
# Track frame offsets:
#	150
#	26945
#	43277
#	61827
#	81815
#	99865
#	118620
#	134150
#	170127
#	196955
#	215705
#	235915
#	255755
#	273380
#	286817
#	306935
#
# Disc length: 4352 seconds
#
# Revision: 3743901826
# Processed by: cddbd v1.5.2PL0 Copyright (c) Steve Scherf et al.
# Submitted via: EZCDAudioConverter 8.3.2.1
#
DISCID=ed10fe10
DTITLE=Deniece Williams - Gonna Take A Miracle - The Best Of Deniece Williams
DYEAR=1996
DGENRE=Soul, R&B
TTITLE0=Deniece Williams - Free
TTITLE1=Deniece Williams - I Found Love
TTITLE2=Deniece Williams - Cause You Love Me, Baby
TTITLE3=Deniece Williams - That's What Friends Are For
TTITLE4=Deniece Williams - God Is Amazing
TTITLE5=Deniece Williams - Baby, Baby, My Love's All For You
TTITLE6=Deniece Williams - When Love Comes Calling
TTITLE7=Deniece Williams - If You Don't Believe
TTITLE8=Deniece Williams - Silly
TTITLE9=Deniece Williams - It's Gonna Take A Miracle
TTITLE10=Deniece Williams - Waiting
TTITLE11=Deniece Williams - Do What You Feel
TTITLE12=Deniece Williams - I'm So Proud
TTITLE13=Deniece Williams and Johnny Mathis - Too Much, Too Little, Too Late
TTITLE14=Deniece Williams - Black Butterfly
TTITLE15=Deniece Williams - Let's Hear It For The Boy
EXTD=
EXTT0=
EXTT1=
EXTT2=
EXTT3=
EXTT4=
EXTT5=
EXTT6=
EXTT7=
EXTT8=
EXTT9=
EXTT10=
EXTT11=
EXTT12=
EXTT13=
EXTT14=
EXTT15=
PLAYORDER=
